<?xml version="1.0" standalone="no"?>
<!DOCTYPE svg PUBLIC "-//W3C//DTD SVG 1.1//EN" "http://www.w3.org/Graphics/SVG/1.1/DTD/svg11.dtd">
<svg width="160.00000000000006mm" height="703.0090704573674mm"
 viewBox="0 0 160.00000000000006 703.0090704573674"
 xmlns="http://www.w3.org/2000/svg" version="1.1"
 xmlns:xlink="http://www.w3.org/1999/xlink">
<desc>Output from Flights of Ideas SVG Sketchup Plugin</desc>

  <path id="face0-cut"
 style="fill:none;stroke:#0000FF;stroke-width:1;stroke-miterlimit:4;stroke-dasharray:none;stroke-linejoin:round;stroke-linecap:round"
        d="M 150.00000000000006,664.2398835858348 L 126.4589803375033,664.2398835858351 L 98.9903243375033,678.0090704573674 L 10.000000000000284,678.009070457367 L 10.0,693.0090704573668 L 35.000000000000284,693.0090704573668 L 35.340741737109454,690.4208800063418 L 36.33974596215586,688.009070457367 L 37.928932188134695,685.9380026455015 L 40.000000000000114,684.3488164195228 L 42.4118095489751,683.3498121944763 L 45.000000000000284,683.009070457367 L 47.588190451025525,683.349812194476 L 50.000000000000114,684.3488164195226 L 52.07106781186576,685.9380026455015 L 53.66025403784448,688.0090704573672 L 54.65925826289083,690.4208800063423 L 55.00000000000006,693.0090704573674 L 102.53134400000016,693.0090704573672 L 150.00000000000006,669.2398835858351 L 150.00000000000006,664.2398835858348 M 69.59903925945486,683.5496750188347 L 70.1198305217585,683.5126635233842 L 70.63245553203382,683.611703861266 L 71.10197974298302,683.8400465971256 L 71.49640585555602,684.1821305508684 L 71.78885438199978,684.6146432663672 L 71.95939543853257,685.1081097168219 L 71.996406933983,685.6289009791253 L 71.89736659610134,686.1415259894009 L 71.66902386024157,686.6110502003501 L 71.32693990649915,687.0054763129226 L 70.89442719100026,687.2979248393669 L 70.40096074054583,687.4684658958993 L 69.88016947824184,687.5054773913498 L 69.36754446796641,687.4064370534682 L 68.8980202570171,687.1780943176086 L 68.50359414444455,686.8360103638659 L 68.21114561800033,686.403497648367 L 68.04060456146777,685.9100311979128 L 68.00359306601746,685.3892399356084 L 68.10263340389923,684.8766149253336 L 68.33097613975866,684.4070907143841 L 68.67306009350142,684.0126646018116 L 69.10557280900031,683.7202160753673 L 69.59903925945486,683.5496750188347 "
  />
  <path id="face0-interior"
 style="fill:none;stroke:#FF0000;stroke-width:1;stroke-miterlimit:4;stroke-dasharray:none;stroke-linejoin:round;stroke-linecap:round"
        d="M 150.00000000000006,664.2398835858348 M 126.4589803375033,664.2398835858351 M 98.9903243375033,678.0090704573674 M 10.000000000000284,678.009070457367 M 10.0,693.0090704573668 M 35.000000000000284,693.0090704573668 M 35.340741737109454,690.4208800063418 M 36.33974596215586,688.009070457367 M 37.928932188134695,685.9380026455015 M 40.000000000000114,684.3488164195228 M 42.4118095489751,683.3498121944763 M 45.000000000000284,683.009070457367 M 47.588190451025525,683.349812194476 M 50.000000000000114,684.3488164195226 M 52.07106781186576,685.9380026455015 M 53.66025403784448,688.0090704573672 M 54.65925826289083,690.4208800063423 M 55.00000000000006,693.0090704573674 M 102.53134400000016,693.0090704573672 M 150.00000000000006,669.2398835858351 M 69.59903925945486,683.5496750188347 M 70.1198305217585,683.5126635233842 M 70.63245553203382,683.611703861266 M 71.10197974298302,683.8400465971256 M 71.49640585555602,684.1821305508684 M 71.78885438199978,684.6146432663672 M 71.95939543853257,685.1081097168219 M 71.996406933983,685.6289009791253 M 71.89736659610134,686.1415259894009 M 71.66902386024157,686.6110502003501 M 71.32693990649915,687.0054763129226 M 70.89442719100026,687.2979248393669 M 70.40096074054583,687.4684658958993 M 69.88016947824184,687.5054773913498 M 69.36754446796641,687.4064370534682 M 68.8980202570171,687.1780943176086 M 68.50359414444455,686.8360103638659 M 68.21114561800033,686.403497648367 M 68.04060456146777,685.9100311979128 M 68.00359306601746,685.3892399356084 M 68.10263340389923,684.8766149253336 M 68.33097613975866,684.4070907143841 M 68.67306009350142,684.0126646018116 M 69.10557280900031,683.7202160753673 "
  />
  <path id="face0-interior"
 style="fill:none;stroke:#00FF00;stroke-width:1;stroke-miterlimit:4;stroke-dasharray:none;stroke-linejoin:round;stroke-linecap:round"
        d="M 150.00000000000006,664.2398835858348 M 126.4589803375033,664.2398835858351 M 98.9903243375033,678.0090704573674 M 10.000000000000284,678.009070457367 M 10.0,693.0090704573668 M 35.000000000000284,693.0090704573668 M 35.340741737109454,690.4208800063418 M 36.33974596215586,688.009070457367 M 37.928932188134695,685.9380026455015 M 40.000000000000114,684.3488164195228 M 42.4118095489751,683.3498121944763 M 45.000000000000284,683.009070457367 M 47.588190451025525,683.349812194476 M 50.000000000000114,684.3488164195226 M 52.07106781186576,685.9380026455015 M 53.66025403784448,688.0090704573672 M 54.65925826289083,690.4208800063423 M 55.00000000000006,693.0090704573674 M 102.53134400000016,693.0090704573672 M 150.00000000000006,669.2398835858351 M 69.59903925945486,683.5496750188347 M 70.1198305217585,683.5126635233842 M 70.63245553203382,683.611703861266 M 71.10197974298302,683.8400465971256 M 71.49640585555602,684.1821305508684 M 71.78885438199978,684.6146432663672 M 71.95939543853257,685.1081097168219 M 71.996406933983,685.6289009791253 M 71.89736659610134,686.1415259894009 M 71.66902386024157,686.6110502003501 M 71.32693990649915,687.0054763129226 M 70.89442719100026,687.2979248393669 M 70.40096074054583,687.4684658958993 M 69.88016947824184,687.5054773913498 M 69.36754446796641,687.4064370534682 M 68.8980202570171,687.1780943176086 M 68.50359414444455,686.8360103638659 M 68.21114561800033,686.403497648367 M 68.04060456146777,685.9100311979128 M 68.00359306601746,685.3892399356084 M 68.10263340389923,684.8766149253336 M 68.33097613975866,684.4070907143841 M 68.67306009350142,684.0126646018116 M 69.10557280900031,683.7202160753673 "
  />
</svg>
